<svg width="24" height="25" viewBox="0 0 24 25" fill="none" xmlns="http://www.w3.org/2000/svg">
<path d="M17 7.42188C17 5.06486 17 3.88634 16.2678 3.1541C15.5355 2.42187 14.357 2.42188 12 2.42188H9C6.64298 2.42188 5.46447 2.42187 4.73223 3.1541C4 3.88634 4 5.06486 4 7.42188V17.4219C4 19.7789 4 20.9574 4.73223 21.6897C5.46447 22.4219 6.64298 22.4219 9 22.4219H12C14.357 22.4219 15.5355 22.4219 16.2678 21.6897C17 20.9574 17 19.7789 17 17.4219V16.4219" stroke="#0A0B0B" stroke-width="1.5" stroke-linecap="round" stroke-linejoin="round"/>
<path d="M12.5 2.42188H8.5L9 3.42188H12L12.5 2.42188Z" stroke="#0A0B0B" stroke-width="1.5" stroke-linecap="round" stroke-linejoin="round"/>
<path d="M12 12.9219C12 12.9219 13.3485 13.4286 14 15.4219C14 15.4219 17.1765 10.4219 20 9.42188" stroke="#0A0B0B" stroke-width="1.5" stroke-linecap="round" stroke-linejoin="round"/>
</svg>
