<svg width="31" height="31" viewBox="0 0 31 31" fill="none" xmlns="http://www.w3.org/2000/svg">
<path d="M25.0156 16.6719C26.0042 15.2546 26.584 13.5309 26.584 11.6719C26.584 6.83939 22.6665 2.92188 17.834 2.92188C13.0015 2.92188 9.08398 6.83938 9.08398 11.6719C9.08398 13.0139 9.3861 14.2852 9.92602 15.4219" stroke="#A3A4A9" stroke-width="1.5" stroke-linecap="round" stroke-linejoin="round"/>
<path d="M15.8809 15.0053V8.33854M17.834 8.33854V6.67188M17.834 16.6719V15.0053M15.8809 11.6719H19.7871M19.7871 11.6719C20.4344 11.6719 20.959 12.2315 20.959 12.9219V13.7553C20.959 14.4456 20.4344 15.0053 19.7871 15.0053H14.709M19.7871 11.6719C20.4344 11.6719 20.959 11.1122 20.959 10.4219V9.58854C20.959 8.89819 20.4344 8.33854 19.7871 8.33854H14.709" stroke="#A3A4A9" stroke-width="1.5" stroke-linecap="round" stroke-linejoin="round"/>
<path d="M4.08398 17.9219H7.07751C7.4452 17.9219 7.80783 18.0047 8.1367 18.1639L10.6892 19.3989C11.018 19.558 11.3807 19.6408 11.7484 19.6408H13.0516C14.3121 19.6408 15.334 20.6296 15.334 21.8494C15.334 21.8986 15.3002 21.942 15.2512 21.9555L12.0751 22.8338C11.5053 22.9913 10.8952 22.9364 10.3652 22.6799L7.63662 21.3597M15.334 21.0469L21.075 19.283C22.0927 18.9659 23.1929 19.3419 23.8304 20.2248C24.2914 20.863 24.1036 21.7771 23.4321 22.1646L14.0376 27.585C13.4401 27.9297 12.7352 28.0139 12.0779 27.8189L4.08398 25.4467" stroke="#A3A4A9" stroke-width="1.5" stroke-linecap="round" stroke-linejoin="round"/>
</svg>
