<svg width="49" height="50" viewBox="0 0 49 50" fill="none" xmlns="http://www.w3.org/2000/svg">
<path d="M16.3243 12.6289C13.0141 12.6894 11.1123 12.9711 9.82596 14.2814C8.1875 15.9505 8.1875 18.6369 8.1875 24.0096V33.7786C8.1875 39.1515 8.1875 41.8378 9.82596 43.5069C11.4644 45.1759 14.1015 45.1759 19.3755 45.1759C24.6496 45.1759 27.2867 45.1759 28.925 43.5069C30.5636 41.8378 30.5636 39.1515 30.5636 33.7786V27.8768" fill="#10B981" fill-opacity="0.08"/>
<path d="M16.3243 12.6289C13.0141 12.6894 11.1123 12.9711 9.82596 14.2814C8.1875 15.9505 8.1875 18.6369 8.1875 24.0096V33.7786C8.1875 39.1515 8.1875 41.8378 9.82596 43.5069C11.4644 45.1759 14.1015 45.1759 19.3755 45.1759C24.6496 45.1759 27.2867 45.1759 28.925 43.5069C30.5636 41.8378 30.5636 39.1515 30.5636 33.7786V27.8768" stroke="#6EE7B7" stroke-width="2.61538" stroke-linecap="round"/>
<path d="M19.375 39.0703H19.3933H19.375Z" fill="#10B981" fill-opacity="0.08"/>
<path d="M19.375 39.0703H19.3933" stroke="#6EE7B7" stroke-width="2.61538" stroke-linecap="round" stroke-linejoin="round"/>
<path d="M20.3926 8.24974C23.3137 5.87326 26.8025 4.49219 30.5497 4.49219C34.3087 4.49219 37.8077 5.88199 40.7345 8.27226M36.092 14.6631C34.4238 13.6228 32.5416 13.0375 30.5497 13.0375C28.568 13.0375 26.6945 13.6169 25.0326 14.6475" fill="#10B981" fill-opacity="0.08"/>
<path d="M20.3926 8.24974C23.3137 5.87326 26.8025 4.49219 30.5497 4.49219C34.3087 4.49219 37.8077 5.88199 40.7345 8.27226M36.092 14.6631C34.4238 13.6228 32.5416 13.0375 30.5497 13.0375C28.568 13.0375 26.6945 13.6169 25.0326 14.6475" stroke="#6EE7B7" stroke-width="2.61538" stroke-linecap="round"/>
<path d="M30.5645 20.7656H30.5775H30.5645Z" fill="#10B981" fill-opacity="0.08"/>
<path d="M30.5645 20.7656H30.5775" stroke="#6EE7B7" stroke-width="2.61538" stroke-linecap="round" stroke-linejoin="round"/>
</svg>
