<svg width="25" height="25" viewBox="0 0 25 25" fill="none" xmlns="http://www.w3.org/2000/svg">
<path d="M8.66602 6.42188C7.03876 6.45163 6.10383 6.59007 5.47148 7.23424C4.66602 8.05476 4.66602 9.37537 4.66602 12.0166V16.819C4.66602 19.4603 4.66602 20.7809 5.47148 21.6014C6.27693 22.4219 7.5733 22.4219 10.166 22.4219C12.7587 22.4219 14.0551 22.4219 14.8605 21.6014C15.666 20.7809 15.666 19.4603 15.666 16.819V13.9177" stroke="#0A0B0B" stroke-width="1.5" stroke-linecap="round"/>
<path d="M10.166 19.4219H10.175" stroke="#0A0B0B" stroke-width="1.5" stroke-linecap="round" stroke-linejoin="round"/>
<path d="M10.666 4.26907C12.102 3.1008 13.8171 2.42188 15.6592 2.42188C17.5071 2.42188 19.2272 3.10509 20.666 4.28014M18.3838 7.42188C17.5637 6.91047 16.6384 6.62273 15.6592 6.62273C14.685 6.62273 13.764 6.90758 12.947 7.41419" stroke="#0A0B0B" stroke-width="1.5" stroke-linecap="round"/>
<path d="M15.666 10.4219H15.6724" stroke="#0A0B0B" stroke-width="1.5" stroke-linecap="round" stroke-linejoin="round"/>
</svg>
