<svg width="50" height="50" viewBox="0 0 50 50" fill="none" xmlns="http://www.w3.org/2000/svg">
<path d="M11.4361 28.9024C9.9603 26.4781 9.11133 23.6376 9.11133 20.6006C9.11133 11.7042 16.3972 4.49219 25.3848 4.49219C34.3725 4.49219 41.6583 11.7042 41.6583 20.6006C41.6583 23.6376 40.8095 26.4781 39.3335 28.9024" fill="#10B981" fill-opacity="0.1"/>
<path d="M11.4361 28.9024C9.9603 26.4781 9.11133 23.6376 9.11133 20.6006C9.11133 11.7042 16.3972 4.49219 25.3848 4.49219C34.3725 4.49219 41.6583 11.7042 41.6583 20.6006C41.6583 23.6376 40.8095 26.4781 39.3335 28.9024" stroke="#6EE7B7" stroke-width="2.61538" stroke-linecap="round"/>
<path d="M15.9929 35.2027C15.8061 34.64 15.7126 34.3587 15.7235 34.1309C15.7465 33.6488 16.0504 33.2255 16.4988 33.0511C16.7108 32.9688 17.0063 32.9688 17.5973 32.9688H33.1727C33.7639 32.9688 34.0592 32.9688 34.2712 33.0511C34.7197 33.2255 35.0236 33.6488 35.0466 34.1309C35.0574 34.3587 34.964 34.64 34.7771 35.2027C34.4317 36.2426 34.259 36.7627 33.9927 37.1836C33.4347 38.0656 32.56 38.6984 31.5499 38.9509C31.0676 39.0713 30.5214 39.0713 29.4292 39.0713H21.3409C20.2486 39.0713 19.7025 39.0713 19.2203 38.9509C18.2101 38.6984 17.3354 38.0656 16.7774 37.1836C16.511 36.7627 16.3383 36.2426 15.9929 35.2027Z" fill="#10B981" fill-opacity="0.1" stroke="#6EE7B7" stroke-width="2.61538"/>
<path d="M31.4883 39.0703L31.2253 40.3856C30.9377 41.824 30.7939 42.5431 30.4714 43.1114C29.9733 43.99 29.1657 44.6519 28.2064 44.9682C27.5859 45.1729 26.8526 45.1729 25.3858 45.1729C23.9189 45.1729 23.1856 45.1729 22.5652 44.9682C21.6058 44.6519 20.7983 43.99 20.3 43.1114C19.9778 42.5431 19.8339 41.824 19.5463 40.3856L19.2832 39.0703" fill="#10B981" fill-opacity="0.1"/>
<path d="M31.4883 39.0703L31.2253 40.3856C30.9377 41.824 30.7939 42.5431 30.4714 43.1114C29.9733 43.99 29.1657 44.6519 28.2064 44.9682C27.5859 45.1729 26.8526 45.1729 25.3858 45.1729C23.9189 45.1729 23.1856 45.1729 22.5652 44.9682C21.6058 44.6519 20.7983 43.99 20.3 43.1114C19.9778 42.5431 19.8339 41.824 19.5463 40.3856L19.2832 39.0703" stroke="#6EE7B7" stroke-width="2.61538"/>
<path d="M25.3848 32.9678V22.7969V32.9678Z" fill="#10B981" fill-opacity="0.1"/>
<path d="M25.3848 32.9678V22.7969" stroke="#6EE7B7" stroke-width="2.61538" stroke-linecap="round" stroke-linejoin="round"/>
</svg>
