<svg width="25" height="25" viewBox="0 0 25 25" fill="none" xmlns="http://www.w3.org/2000/svg">
<path d="M5.47684 14.9219C4.75133 13.7301 4.33398 12.3337 4.33398 10.8407C4.33398 6.46727 7.9157 2.92188 12.334 2.92188C16.7523 2.92188 20.334 6.46727 20.334 10.8407C20.334 12.3337 19.9167 13.7301 19.1911 14.9219" stroke="#0A0B0B" stroke-width="1.5" stroke-linecap="round"/>
<path d="M7.71685 18.0201C7.62498 17.7435 7.57905 17.6052 7.5844 17.4932C7.59572 17.2562 7.74512 17.0481 7.96555 16.9624C8.06977 16.9219 8.21503 16.9219 8.50555 16.9219H16.1624C16.453 16.9219 16.5982 16.9219 16.7024 16.9624C16.9229 17.0481 17.0723 17.2562 17.0836 17.4932C17.0889 17.6052 17.043 17.7435 16.9511 18.0201C16.7813 18.5313 16.6964 18.787 16.5655 18.9939C16.2912 19.4275 15.8612 19.7386 15.3646 19.8627C15.1275 19.9219 14.859 19.9219 14.3221 19.9219H10.3459C9.80893 19.9219 9.54048 19.9219 9.30342 19.8627C8.80681 19.7386 8.37679 19.4275 8.10248 18.9939C7.97153 18.787 7.88664 18.5313 7.71685 18.0201Z" stroke="#0A0B0B" stroke-width="1.5"/>
<path d="M15.334 19.9219L15.2047 20.5685C15.0633 21.2756 14.9926 21.6291 14.8341 21.9085C14.5892 22.3404 14.1922 22.6658 13.7206 22.8213C13.4156 22.9219 13.0551 22.9219 12.334 22.9219C11.6129 22.9219 11.2524 22.9219 10.9474 22.8213C10.4758 22.6658 10.0788 22.3404 9.83385 21.9085C9.67542 21.6291 9.60471 21.2756 9.4633 20.5685L9.33398 19.9219" stroke="#0A0B0B" stroke-width="1.5"/>
<path d="M12.334 16.9219V11.9219" stroke="#0A0B0B" stroke-width="1.5" stroke-linecap="round" stroke-linejoin="round"/>
</svg>
